<svg width="22" height="22" viewBox="0 0 22 22" fill="none" xmlns="http://www.w3.org/2000/svg">
<path d="M11.2673 0.267578C5.36464 0.267578 0.535156 5.09706 0.535156 10.9998C0.535156 16.9025 5.36464 21.7319 11.2673 21.7319C17.17 21.7319 21.9995 16.9025 21.9995 10.9998C21.9995 5.09706 17.17 0.267578 11.2673 0.267578ZM15.7748 9.17529L10.6234 14.3267C10.1941 14.756 9.55019 14.756 9.1209 14.3267L6.75982 11.9657C6.33053 11.5364 6.33053 10.8924 6.75982 10.4631C7.18911 10.0339 7.83304 10.0339 8.26232 10.4631L9.87215 12.073L14.2723 7.67278C14.7016 7.24349 15.3456 7.24349 15.7748 7.67278C16.2041 8.10207 16.2041 8.746 15.7748 9.17529Z" fill="white"/>
</svg>
