<svg width="32" height="25" viewBox="0 0 32 25" fill="none" xmlns="http://www.w3.org/2000/svg">
<path d="M16 0.0556641C7.16333 0.0556641 0 7.219 0 16.0557C0 18.989 0.791667 21.7368 2.17 24.1001C2.48167 24.6346 3.07556 24.9446 3.69444 24.9446H28.3056C28.9244 24.9446 29.5183 24.6346 29.83 24.1001C31.2083 21.7368 32 18.989 32 16.0557C32 7.219 24.8367 0.0556641 16 0.0556641ZM16 3.61122C16.8172 3.61122 17.4767 4.174 17.6844 4.92511C17.6228 5.05066 17.5378 5.16011 17.4928 5.29566L16.9806 6.83289C16.6956 7.02678 16.3711 7.16678 16.0006 7.16678C15.0189 7.16678 14.2228 6.37066 14.2228 5.389C14.2228 4.40733 15.0183 3.61122 16 3.61122ZM5.33333 19.6112C4.35167 19.6112 3.55556 18.8151 3.55556 17.8334C3.55556 16.8518 4.35167 16.0557 5.33333 16.0557C6.315 16.0557 7.11111 16.8518 7.11111 17.8334C7.11111 18.8151 6.315 19.6112 5.33333 19.6112ZM8 10.7223C7.01833 10.7223 6.22222 9.92622 6.22222 8.94455C6.22222 7.96289 7.01833 7.16678 8 7.16678C8.98167 7.16678 9.77778 7.96289 9.77778 8.94455C9.77778 9.92622 8.98167 10.7223 8 10.7223ZM21.7094 6.69955L18.3022 16.9218C19.0628 17.574 19.5556 18.5301 19.5556 19.6112C19.5556 20.2623 19.3678 20.864 19.0622 21.389H12.9378C12.6322 20.864 12.4444 20.2623 12.4444 19.6112C12.4444 17.7257 13.9167 16.1984 15.7722 16.0784L19.18 5.85566C19.4117 5.15789 20.165 4.77511 20.8667 5.01289C21.565 5.24566 21.9417 6.00122 21.7094 6.69955ZM22.5239 9.87733L23.3861 7.29122C23.5789 7.21955 23.7822 7.16733 24 7.16733C24.9817 7.16733 25.7778 7.96344 25.7778 8.94511C25.7778 9.92677 24.9817 10.7229 24 10.7229C23.3678 10.7223 22.8394 10.374 22.5239 9.87733ZM26.6667 19.6112C25.685 19.6112 24.8889 18.8151 24.8889 17.8334C24.8889 16.8518 25.685 16.0557 26.6667 16.0557C27.6483 16.0557 28.4444 16.8518 28.4444 17.8334C28.4444 18.8151 27.6483 19.6112 26.6667 19.6112Z" fill="white"/>
</svg>
