<svg width="32" height="34" viewBox="0 0 32 34" fill="none" xmlns="http://www.w3.org/2000/svg">
<path fill-rule="evenodd" clip-rule="evenodd" d="M7.97789 1.75293H6.40497C4.63612 1.75293 3.20215 3.1869 3.20215 4.95578V27.3758C3.20215 29.1447 4.63612 30.5787 6.40497 30.5787H22.4192C24.1882 30.5787 25.6221 29.1447 25.6221 27.3758V4.95578C25.6221 3.1869 24.1882 1.75293 22.4192 1.75293H20.7893V2.00159V2.80296V3.35436H22.4192C23.3037 3.35436 24.0207 4.07134 24.0207 4.95578V27.3758C24.0207 28.2602 23.3037 28.9772 22.4192 28.9772H6.40497C5.52058 28.9772 4.80354 28.2602 4.80354 27.3758V4.95578C4.80354 4.07134 5.52058 3.35436 6.40497 3.35436H7.97789V2.80296V2.00159V1.75293ZM11.9815 3.35436H16.7857V2.80296V2.00159V1.75293H11.9815V2.00159V2.80296V3.35436Z" fill="white"/>
<path fill-rule="evenodd" clip-rule="evenodd" d="M7.97949 10.4091C7.97949 9.96688 8.33797 9.6084 8.78021 9.6084H19.9902C20.4324 9.6084 20.7909 9.96688 20.7909 10.4091C20.7909 10.8513 20.4324 11.2098 19.9902 11.2098H8.78021C8.33797 11.2098 7.97949 10.8513 7.97949 10.4091Z" fill="white"/>
<path fill-rule="evenodd" clip-rule="evenodd" d="M8.00684 14.5644C8.00684 14.1222 8.3654 13.7637 8.80755 13.7637H20.0175C20.4598 13.7637 20.8183 14.1222 20.8183 14.5644C20.8183 15.0065 20.4598 15.3651 20.0175 15.3651H8.80755C8.3654 15.3651 8.00684 15.0065 8.00684 14.5644Z" fill="white"/>
<path fill-rule="evenodd" clip-rule="evenodd" d="M8.00684 18.5683C8.00684 18.1261 8.3654 17.7676 8.80755 17.7676H20.0175C20.4598 17.7676 20.8183 18.1261 20.8183 18.5683C20.8183 19.0104 20.4598 19.369 20.0175 19.369H8.80755C8.3654 19.369 8.00684 19.0104 8.00684 18.5683Z" fill="white"/>
<path fill-rule="evenodd" clip-rule="evenodd" d="M8.00684 22.6152C8.00684 22.173 8.3654 21.8145 8.80755 21.8145H15.2133C15.6555 21.8145 16.014 22.173 16.014 22.6152C16.014 23.0574 15.6555 23.4159 15.2133 23.4159H8.80755C8.3654 23.4159 8.00684 23.0574 8.00684 22.6152Z" fill="white"/>
<path fill-rule="evenodd" clip-rule="evenodd" d="M0.800721 5.5708C1.24295 5.5708 1.60143 5.9293 1.60143 6.37151L1.60143 28.0249C1.60143 30.236 3.39389 32.0284 5.60496 32.0284H20.8703C21.3125 32.0284 21.671 32.3869 21.671 32.8291C21.671 33.2713 21.3125 33.6299 20.8703 33.6299H5.60496C2.50944 33.6299 0 31.1203 0 28.0249L8.01801e-06 6.37151C8.01801e-06 5.9293 0.358503 5.5708 0.800721 5.5708Z" fill="white"/>
<path fill-rule="evenodd" clip-rule="evenodd" d="M30.3991 13.6122H28.7977V25.8898L29.5984 26.9574L30.3991 25.8898V13.6122ZM32.0006 26.4236L29.5984 29.6264L27.1963 26.4236V12.0107H32.0006V26.4236Z" fill="white"/>
<path fill-rule="evenodd" clip-rule="evenodd" d="M30.3991 8.00719H28.7977V9.60862H30.3991V8.00719ZM28.7977 6.40576H30.3991C31.2836 6.40576 32.0006 7.12272 32.0006 8.00719V11.21H27.1963V8.00719C27.1963 7.12272 27.9132 6.40576 28.7977 6.40576Z" fill="white"/>
<path fill-rule="evenodd" clip-rule="evenodd" d="M18.789 0C19.4523 0 19.99 0.537735 19.99 1.20107V3.60387C19.99 4.2672 19.4523 4.80494 18.789 4.80494C18.1256 4.80494 17.5879 4.2672 17.5879 3.60387V1.20107C17.5879 0.537735 18.1256 0 18.789 0Z" fill="white"/>
<path fill-rule="evenodd" clip-rule="evenodd" d="M9.9872 0C10.6506 0 11.1883 0.537735 11.1883 1.20107V3.60387C11.1883 4.2672 10.6506 4.80494 9.9872 4.80494C9.32389 4.80494 8.78613 4.2672 8.78613 3.60387V1.20107C8.78613 0.537735 9.32389 0 9.9872 0Z" fill="white"/>
</svg>
