<svg width="50" height="43" viewBox="0 0 50 43" fill="none" xmlns="http://www.w3.org/2000/svg">
<path d="M13.4528 19.6925H32.6712V2.39596C32.6712 1.88625 32.4687 1.39743 32.1083 1.03701C31.7479 0.6766 31.2591 0.474121 30.7494 0.474121H1.92184C1.41213 0.474121 0.923306 0.6766 0.562892 1.03701C0.202478 1.39743 0 1.88625 0 2.39596V40.8327C0 41.3424 0.202478 41.8312 0.562892 42.1916C0.923306 42.552 1.41213 42.7545 1.92184 42.7545H30.7494C31.2591 42.7545 31.7479 42.552 32.1083 42.1916C32.4687 41.8312 32.6712 41.3424 32.6712 40.8327V23.5361H13.4528V19.6925Z" fill="white"/>
<path d="M49.4041 20.256L38.4364 9.28711L35.7182 12.0053L43.4055 19.6926H32.6709V23.5363H43.4055L35.7182 31.2237L38.4364 33.9419L49.4041 22.973C49.7642 22.6126 49.9665 22.124 49.9665 21.6145C49.9665 21.105 49.7642 20.6164 49.4041 20.256Z" fill="white"/>
</svg>
