<svg width="42" height="39" viewBox="0 0 42 39" fill="none" xmlns="http://www.w3.org/2000/svg">
<path fill-rule="evenodd" clip-rule="evenodd" d="M10.4713 2.48779H8.40683C6.08522 2.48779 4.20312 4.11391 4.20312 6.11983V31.5441C4.20312 33.55 6.08522 35.1762 8.40683 35.1762H29.4256C31.7473 35.1762 33.6293 33.55 33.6293 31.5441V6.11983C33.6293 4.11391 31.7473 2.48779 29.4256 2.48779H27.2863V2.76978V3.67853V4.30381H29.4256C30.5864 4.30381 31.5274 5.11687 31.5274 6.11983V31.5441C31.5274 32.547 30.5864 33.3601 29.4256 33.3601H8.40683C7.24607 33.3601 6.30496 32.547 6.30496 31.5441V6.11983C6.30496 5.11687 7.24607 4.30381 8.40683 4.30381H10.4713V3.67853V2.76978V2.48779ZM15.726 4.30381H22.0316V3.67853V2.76978V2.48779H15.726V2.76978V3.67853V4.30381Z" fill="#E9ECEF"/>
<path fill-rule="evenodd" clip-rule="evenodd" d="M10.4727 12.304C10.4727 11.8025 10.9432 11.396 11.5236 11.396H26.2367C26.8171 11.396 27.2876 11.8025 27.2876 12.304C27.2876 12.8055 26.8171 13.212 26.2367 13.212H11.5236C10.9432 13.212 10.4727 12.8055 10.4727 12.304Z" fill="#E9ECEF"/>
<path fill-rule="evenodd" clip-rule="evenodd" d="M10.5088 17.0159C10.5088 16.5144 10.9794 16.1079 11.5597 16.1079H26.2728C26.8533 16.1079 27.3238 16.5144 27.3238 17.0159C27.3238 17.5173 26.8533 17.9239 26.2728 17.9239H11.5597C10.9794 17.9239 10.5088 17.5173 10.5088 17.0159Z" fill="#E9ECEF"/>
<path fill-rule="evenodd" clip-rule="evenodd" d="M10.5088 21.5564C10.5088 21.055 10.9794 20.6484 11.5597 20.6484H26.2728C26.8533 20.6484 27.3238 21.055 27.3238 21.5564C27.3238 22.0578 26.8533 22.4645 26.2728 22.4645H11.5597C10.9794 22.4645 10.5088 22.0578 10.5088 21.5564Z" fill="#E9ECEF"/>
<path fill-rule="evenodd" clip-rule="evenodd" d="M10.5088 26.1458C10.5088 25.6444 10.9794 25.2378 11.5597 25.2378H19.9672C20.5477 25.2378 21.0182 25.6444 21.0182 26.1458C21.0182 26.6473 20.5477 27.0538 19.9672 27.0538H11.5597C10.9794 27.0538 10.5088 26.6473 10.5088 26.1458Z" fill="#E9ECEF"/>
<path fill-rule="evenodd" clip-rule="evenodd" d="M1.05095 6.81738C1.63137 6.81738 2.10188 7.22392 2.10188 7.72539L2.10187 32.2803C2.10187 34.7877 4.45448 36.8203 7.35651 36.8203H27.3923C27.9726 36.8203 28.4432 37.2268 28.4432 37.7283C28.4432 38.2297 27.9726 38.6364 27.3923 38.6364H7.35651C3.29364 38.6364 0 35.7906 0 32.2803L1.05236e-05 7.72539C1.05236e-05 7.22392 0.470536 6.81738 1.05095 6.81738Z" fill="#E9ECEF"/>
<path fill-rule="evenodd" clip-rule="evenodd" d="M39.8991 15.9361H37.7972V29.8589L38.8481 31.0696L39.8991 29.8589V15.9361ZM42.0009 30.4643L38.8481 34.0963L35.6953 30.4643V14.1201H42.0009V30.4643Z" fill="#E9ECEF"/>
<path fill-rule="evenodd" clip-rule="evenodd" d="M39.8991 9.58018H37.7972V11.3962H39.8991V9.58018ZM37.7972 7.76416H39.8991C41.0599 7.76416 42.0009 8.57719 42.0009 9.58018V13.2122H35.6953V9.58018C35.6953 8.57719 36.6363 7.76416 37.7972 7.76416Z" fill="#E9ECEF"/>
<path fill-rule="evenodd" clip-rule="evenodd" d="M24.6604 0.5C25.531 0.5 26.2368 1.10979 26.2368 1.86201V4.58679C26.2368 5.33901 25.531 5.9488 24.6604 5.9488C23.7898 5.9488 23.084 5.33901 23.084 4.58679V1.86201C23.084 1.10979 23.7898 0.5 24.6604 0.5Z" fill="#E9ECEF"/>
<path fill-rule="evenodd" clip-rule="evenodd" d="M13.1086 0.5C13.9793 0.5 14.685 1.10979 14.685 1.86201V4.58679C14.685 5.33901 13.9793 5.9488 13.1086 5.9488C12.238 5.9488 11.5322 5.33901 11.5322 4.58679V1.86201C11.5322 1.10979 12.238 0.5 13.1086 0.5Z" fill="#E9ECEF"/>
</svg>
