<svg width="42" height="40" viewBox="0 0 42 40" fill="none" xmlns="http://www.w3.org/2000/svg">
<path d="M18.0578 0.5C17.3596 0.5 16.8 1.03948 16.8 1.7096V2.9192H12.6C11.8244 2.9192 11.2 3.45868 11.2 4.1288V6.548C11.2 7.21812 11.8244 7.7576 12.6 7.7576H26.6C27.3756 7.7576 28 7.21812 28 6.548V4.1288C28 3.45868 27.3756 2.9192 26.6 2.9192H22.4V1.7096C22.4 1.03948 21.8404 0.5 21.1422 0.5H18.0578ZM4.2 2.9192C1.8732 2.9192 0 4.53764 0 6.548V35.5784C0 37.5887 1.8732 39.2072 4.2 39.2072H24.2976C22.4854 37.9417 21.1149 36.2669 20.3383 34.3688H5.6V5.3384H8.4V2.9192H4.2ZM30.8 2.9192V5.3384H33.6V19.9292C35.6029 20.1213 37.5233 20.7257 39.2 21.6916V6.548C39.2 4.53764 37.3268 2.9192 35 2.9192H30.8ZM11.9 12.596C11.5122 12.596 11.2 12.8657 11.2 13.2008V14.4104C11.2 14.7455 11.5122 15.0152 11.9 15.0152H27.3C27.6878 15.0152 28 14.7455 28 14.4104V13.2008C28 12.8657 27.6878 12.596 27.3 12.596H11.9ZM11.9 17.4344C11.5122 17.4344 11.2 17.7041 11.2 18.0392V19.2488C11.2 19.5839 11.5122 19.8536 11.9 19.8536H27.3C27.6878 19.8536 28 19.5839 28 19.2488V18.0392C28 17.7041 27.6878 17.4344 27.3 17.4344H11.9ZM11.9 22.2728C11.5122 22.2728 11.2 22.5425 11.2 22.8776V24.0872C11.2 24.4223 11.5122 24.692 11.9 24.692H18.9C19.2878 24.692 19.6 24.4223 19.6 24.0872V22.8776C19.6 22.5425 19.2878 22.2728 18.9 22.2728H11.9Z" fill="white"/>
<path d="M32.1994 22.2729C29.6003 22.2729 27.1076 23.165 25.2698 24.7529C23.4319 26.3408 22.3994 28.4945 22.3994 30.7401C22.3994 32.9858 23.4319 35.1395 25.2698 36.7274C27.1076 38.3153 29.6003 39.2073 32.1994 39.2073C34.7985 39.2073 37.2912 38.3153 39.1291 36.7274C40.9669 35.1395 41.9994 32.9858 41.9994 30.7401C41.9994 28.4945 40.9669 26.3408 39.1291 24.7529C37.2912 23.165 34.7985 22.2729 32.1994 22.2729Z" fill="white"/>
<path fill-rule="evenodd" clip-rule="evenodd" d="M37.7495 26.9241C37.293 26.5266 36.5528 26.5266 36.0964 26.9241L29.9091 32.3117L27.9135 30.6453C27.457 30.2478 26.7169 30.2478 26.2603 30.6453C25.8038 31.0429 25.8038 31.6873 26.2603 32.0849L29.0826 34.471C29.3018 34.6619 29.5991 34.7691 29.9091 34.7691C30.2192 34.7691 30.5165 34.6619 30.7357 34.471L37.7495 28.3636C38.206 27.9661 38.206 27.3216 37.7495 26.9241Z" fill="#003F9A"/>
</svg>
