<svg width="40" height="40" viewBox="0 0 40 40" fill="none" xmlns="http://www.w3.org/2000/svg">
<path d="M18.0578 0.5C17.3596 0.5 16.8 1.03948 16.8 1.7096V2.9192H12.6C11.8244 2.9192 11.2 3.45868 11.2 4.1288V6.548C11.2 7.21812 11.8244 7.7576 12.6 7.7576H26.6C27.3756 7.7576 28 7.21812 28 6.548V4.1288C28 3.45868 27.3756 2.9192 26.6 2.9192H22.4V1.7096C22.4 1.03948 21.8404 0.5 21.1422 0.5H18.0578ZM4.2 2.9192C1.8732 2.9192 0 4.53764 0 6.548V35.5784C0 37.5888 1.8732 39.2072 4.2 39.2072H24.2977C22.4855 37.9417 21.1149 36.2669 20.3383 34.3688H5.6V5.3384H8.4V2.9192H4.2ZM30.8 2.9192V5.3384H33.6V19.9292C35.6029 20.1213 37.5233 20.7257 39.2 21.6916V6.548C39.2 4.53764 37.3268 2.9192 35 2.9192H30.8ZM11.9 12.596C11.5122 12.596 11.2 12.8657 11.2 13.2008V14.4104C11.2 14.7455 11.5122 15.0152 11.9 15.0152H27.3C27.6878 15.0152 28 14.7455 28 14.4104V13.2008C28 12.8657 27.6878 12.596 27.3 12.596H11.9ZM11.9 17.4344C11.5122 17.4344 11.2 17.7041 11.2 18.0392V19.2488C11.2 19.5839 11.5122 19.8536 11.9 19.8536H27.3C27.6878 19.8536 28 19.5839 28 19.2488V18.0392C28 17.7041 27.6878 17.4344 27.3 17.4344H11.9ZM11.9 22.2728C11.5122 22.2728 11.2 22.5425 11.2 22.8776V24.0872C11.2 24.4223 11.5122 24.692 11.9 24.692H18.9C19.2878 24.692 19.6 24.4223 19.6 24.0872V22.8776C19.6 22.5425 19.2878 22.2728 18.9 22.2728H11.9Z" fill="white"/>
</svg>
