<svg width="32" height="34" viewBox="0 0 32 34" fill="none" xmlns="http://www.w3.org/2000/svg">
<path d="M13.7298 14.402C17.5328 14.402 20.6158 11.319 20.6158 7.51592C20.6158 3.71287 17.5328 0.629883 13.7298 0.629883C9.92673 0.629883 6.84375 3.71287 6.84375 7.51592C6.84375 11.319 9.92673 14.402 13.7298 14.402Z" fill="white"/>
<path d="M18.1426 26.9907H25.6042V28.4831H18.1426V26.9907Z" fill="white"/>
<path d="M11.747 29.1227V32.3206C11.747 32.6033 11.8593 32.8744 12.0592 33.0743C12.2591 33.2742 12.5302 33.3865 12.8129 33.3865H30.934C31.2168 33.3865 31.4879 33.2742 31.6878 33.0743C31.8877 32.8744 32 32.6033 32 32.3206V21.6611C32 21.3783 31.8877 21.1072 31.6878 20.9073C31.4879 20.7074 31.2168 20.5951 30.934 20.5951H23.4724V19.0282C23.4724 18.7455 23.3601 18.4743 23.1602 18.2744C22.9603 18.0745 22.6892 17.9622 22.4065 17.9622C22.1237 17.9622 21.8526 18.0745 21.6527 18.2744C21.4528 18.4743 21.3405 18.7455 21.3405 19.0282V20.5951H19.2086V16.779C17.3972 16.4832 15.565 16.3334 13.7296 16.3313C9.68199 16.3141 5.67972 17.1837 2.00417 18.8789C1.39923 19.1644 0.888874 19.6174 0.533667 20.1843C0.178461 20.7511 -0.0066898 21.4079 0.000184707 22.0768V29.1227H11.747ZM29.8681 31.2546H13.8789V22.727H21.3405V23.1747C21.3405 23.4574 21.4528 23.7285 21.6527 23.9284C21.8526 24.1283 22.1237 24.2407 22.4065 24.2407C22.6892 24.2407 22.9603 24.1283 23.1602 23.9284C23.3601 23.7285 23.4724 23.4574 23.4724 23.1747V22.727H29.8681V31.2546Z" fill="white"/>
</svg>
